<?xml version="1.0" standalone="no"?>
<!DOCTYPE svg PUBLIC "-//W3C//DTD SVG 20010904//EN"
 "http://www.w3.org/TR/2001/REC-SVG-20010904/DTD/svg10.dtd">
<svg version="1.0" xmlns="http://www.w3.org/2000/svg"
 width="304.000000pt" height="304.000000pt" viewBox="0 0 304.000000 304.000000"
 preserveAspectRatio="xMidYMid meet">
<metadata>
Created by potrace 1.11, written by Peter Selinger 2001-2013
</metadata>
<g transform="translate(0.000000,304.000000) scale(0.100000,-0.100000)"
fill="#000000" stroke="none">
<path d="M1611 2583 c-17 -20 -31 -41 -31 -44 0 -10 70 -20 95 -15 11 3 23 5
28 5 17 2 5 29 -27 60 l-33 32 -32 -38z"/>
<path d="M1637 2503 c-2 -4 -2 -26 2 -48 6 -40 6 -40 54 -42 26 -1 47 2 47 7
0 6 -10 10 -22 10 l-21 0 23 25 23 25 -26 0 c-15 0 -29 -1 -31 -2 -2 -2 -13 5
-24 15 -11 10 -22 15 -25 10z m37 -63 c-6 -6 -10 -3 -10 10 0 13 4 16 10 10 7
-7 7 -13 0 -20z"/>
<path d="M1290 2398 c-56 -8 -148 -36 -265 -81 -76 -30 -146 -79 -245 -171
-56 -52 -61 -58 -139 -162 -24 -32 -45 -60 -47 -62 -1 -2 -19 4 -39 13 -21 8
-40 13 -43 10 -5 -5 42 -25 59 -25 12 0 11 -10 -2 -48 -6 -18 -15 -30 -19 -27
-5 3 -7 -8 -5 -25 4 -26 0 -32 -22 -41 -14 -5 -28 -7 -31 -5 -2 3 -18 -11 -33
-31 -27 -33 -34 -60 -30 -105 1 -9 -3 -19 -8 -22 -6 -4 -2 -15 9 -26 26 -26
27 -26 22 11 -3 23 -1 30 7 24 7 -4 10 -14 6 -24 -5 -13 -4 -14 7 -3 10 10 10
17 -1 35 -14 22 -14 22 8 3 13 -12 19 -26 16 -35 -5 -13 -4 -13 6 -4 10 10 9
15 -1 27 -15 19 -6 48 13 40 8 -3 17 2 21 12 5 14 4 15 -9 4 -8 -7 -15 -8 -15
-3 0 5 -9 9 -19 10 -15 1 -18 -3 -14 -15 4 -13 3 -14 -6 -6 -15 13 -3 47 14
40 7 -2 12 3 11 12 -1 11 8 18 27 20 19 2 27 -1 27 -12 0 -10 -7 -13 -21 -11
-12 3 -18 1 -15 -3 4 -4 13 -7 19 -7 6 0 12 -14 13 -31 1 -22 -3 -31 -15 -31
-9 0 -20 5 -24 11 -6 7 -7 6 -4 -4 2 -8 12 -15 22 -15 10 0 20 -6 23 -14 3 -8
0 -11 -7 -7 -6 4 -11 3 -11 -3 0 -5 5 -13 10 -16 6 -3 10 -17 10 -30 0 -13 5
-27 10 -30 6 -4 7 -11 4 -17 -4 -7 -2 -8 4 -4 6 4 9 13 6 20 -3 7 2 19 11 26
12 10 15 10 15 -1 0 -11 3 -11 11 1 8 12 9 11 5 -5 -3 -11 0 -27 7 -35 14 -18
54 -24 62 -9 5 8 -14 13 -36 11 -4 -1 -6 10 -6 23 0 14 4 25 9 25 6 0 5 6 -2
15 -15 18 -3 38 17 30 13 -4 14 -3 3 10 -7 8 -15 13 -19 11 -4 -3 -7 4 -7 15
0 16 4 16 30 -9 l30 -27 -28 38 c-33 45 -29 61 4 20 13 -15 20 -20 17 -11 -3
9 -1 18 5 20 6 2 3 10 -6 17 -14 12 -16 11 -10 -5 5 -18 5 -18 -6 -1 -6 9 -8
22 -4 29 5 7 2 9 -9 5 -9 -3 -18 0 -21 9 -10 26 25 11 61 -25 26 -27 33 -42
33 -73 0 -21 5 -38 11 -38 5 0 7 -4 4 -10 -11 -17 7 -11 20 7 11 15 15 16 31
3 17 -13 17 -12 -1 8 -11 13 -21 19 -23 13 -2 -6 -8 -11 -13 -11 -6 0 -7 5 -3
12 12 19 12 67 0 65 -5 -1 -11 3 -11 8 -3 22 -26 67 -31 62 -4 -3 -12 -1 -19
6 -16 15 2 47 24 40 14 -4 14 -4 1 6 -11 8 -18 7 -26 -4 -15 -20 -28 -19 -20
1 3 9 2 12 -5 9 -5 -4 -7 -15 -4 -26 4 -11 2 -19 -5 -19 -6 0 -9 4 -6 9 4 5 1
11 -5 13 -7 2 -2 15 13 32 24 28 24 28 62 12 35 -14 41 -15 55 -1 15 13 48 16
156 14 11 0 15 -3 9 -7 -6 -4 -14 -19 -18 -35 -5 -22 -10 -26 -24 -18 -28 14
-92 30 -92 22 0 -8 82 -56 90 -53 3 0 4 -9 2 -21 -10 -72 -10 -72 32 -74 22
-1 46 -5 53 -7 7 -3 14 -1 14 4 1 6 3 15 4 20 1 6 3 14 4 19 0 5 19 2 41 -6
37 -15 41 -15 60 2 12 11 20 13 20 6 0 -7 5 -9 11 -5 8 5 8 9 -1 14 -7 4 -9
14 -6 21 4 8 1 6 -6 -3 -16 -19 -56 -18 -84 3 -20 14 -29 49 -13 49 5 0 9 11
9 23 0 13 9 50 21 83 11 32 22 64 23 69 12 46 19 65 22 65 13 0 44 -43 38 -52
-4 -6 -3 -8 3 -5 6 4 25 -9 42 -28 38 -44 56 -44 72 -1 7 19 17 32 22 29 6 -3
7 -1 3 5 -7 12 24 81 37 82 5 0 6 -4 3 -8 -6 -9 46 -264 65 -317 4 -12 -15
-48 -49 -93 -19 -25 -28 -30 -38 -21 -7 6 -23 9 -36 6 l-23 -4 22 -8 c14 -4
20 -13 16 -23 -4 -14 -3 -14 5 -3 8 11 14 11 40 -2 23 -11 29 -11 26 -2 -3 7
0 16 7 21 7 4 10 3 5 -4 -4 -6 1 -10 13 -9 16 1 18 4 9 21 -11 20 -11 20 18 2
l29 -19 -25 28 -25 28 25 -13 c24 -13 25 -12 8 7 -23 26 -23 41 0 20 24 -22
42 -8 37 31 -4 29 -3 31 11 17 18 -18 31 -20 16 -2 -13 15 -11 67 2 59 5 -3 6
2 3 12 -4 9 -3 15 2 12 11 -7 35 20 28 31 -3 5 3 9 13 9 17 0 18 -2 5 -16 -21
-23 -19 -35 3 -19 14 11 15 11 5 -1 -18 -20 -16 -30 5 -24 10 4 13 3 6 -3 -6
-4 -10 -23 -9 -41 1 -17 0 -30 -3 -27 -10 10 -31 -17 -25 -32 5 -13 2 -13 -23
2 l-29 17 24 -20 c28 -22 56 -18 46 7 -5 13 -4 14 7 3 11 -11 10 -16 -4 -26
-10 -7 -18 -17 -18 -21 0 -4 8 -4 18 -1 15 5 15 4 -2 -9 -12 -9 -17 -22 -13
-35 3 -11 1 -20 -3 -20 -5 0 -7 -12 -5 -27 1 -16 0 -30 -4 -33 -12 -9 -43 -62
-32 -56 7 5 10 -1 8 -16 -1 -18 2 -22 17 -20 17 3 18 1 8 -11 -7 -8 -11 -19
-10 -25 2 -5 -1 -10 -7 -10 -5 -1 -9 7 -7 16 2 15 1 15 -8 -1 -6 -9 -8 -22 -5
-27 3 -6 -1 -7 -10 -4 -11 4 -14 2 -9 -9 3 -8 1 -18 -5 -22 -7 -4 -8 0 -4 11
5 13 -3 11 -32 -9 -21 -14 -41 -24 -45 -22 -4 3 -15 -4 -25 -15 -10 -11 -24
-20 -32 -20 -7 0 -13 -4 -13 -10 0 -5 -5 -10 -11 -10 -5 0 -7 6 -3 13 4 6 -2
3 -14 -7 -26 -23 -28 -15 -6 22 15 25 14 24 -7 -3 -13 -16 -22 -31 -21 -34 4
-4 -19 -21 -28 -21 -3 1 -14 7 -24 15 -15 12 -17 17 -7 29 9 10 9 20 2 34 -8
15 -6 19 7 19 9 0 22 -2 27 -6 6 -3 3 1 -7 10 -17 16 -17 17 0 25 9 4 27 7 39
7 12 0 20 4 17 9 -9 14 25 58 40 52 8 -3 16 -1 19 3 7 11 -88 11 -98 1 -4 -4
-17 -3 -29 3 -20 9 -20 9 -3 -4 17 -14 17 -16 -4 -30 -13 -9 -18 -20 -14 -28
5 -8 4 -10 -3 -5 -7 4 -12 1 -12 -9 0 -9 -4 -13 -10 -10 -6 3 -7 -1 -4 -9 3
-9 1 -16 -5 -16 -6 0 -11 -4 -11 -9 0 -6 -18 -38 -40 -73 l-41 -64 -120 -3
c-98 -2 -120 0 -114 11 6 10 5 11 -6 1 -19 -18 -25 -16 -26 9 -2 18 0 20 7 8
5 -8 10 -12 10 -7 0 4 -5 16 -12 26 -9 15 -8 23 8 43 11 14 25 23 32 20 6 -2
15 3 18 12 3 9 11 16 17 16 5 0 2 -9 -9 -21 -15 -17 -16 -22 -4 -29 10 -6 21
-3 33 7 17 16 17 16 11 0 -3 -10 -1 -17 6 -17 6 0 8 -5 4 -12 -4 -7 -3 -8 5
-4 6 4 9 10 7 14 -2 4 2 13 10 20 13 12 18 8 15 -13 -1 -5 5 -2 13 8 8 11 20
15 32 11 14 -4 16 -3 5 4 -8 6 -10 15 -6 23 5 8 -1 5 -14 -5 -15 -14 -24 -17
-32 -9 -6 6 -18 9 -25 6 -10 -4 -12 0 -8 11 4 9 12 15 18 13 6 -3 22 5 35 17
l24 21 -19 -30 -18 -30 20 18 c11 9 24 14 28 10 4 -4 4 1 0 11 -6 15 -4 17 7
11 11 -6 11 -5 3 4 -8 9 -4 20 19 42 36 36 45 33 16 -7 -18 -25 -17 -24 8 4
22 23 38 32 61 32 18 0 32 4 32 9 0 9 -83 6 -100 -4 -5 -3 -10 -2 -10 2 0 5
-9 9 -20 10 -11 1 -20 -2 -20 -6 0 -7 -17 -8 -54 -2 -4 0 -6 8 -2 16 3 8 1 15
-5 15 -6 0 -7 6 -3 13 5 7 1 6 -10 -3 -11 -8 -14 -16 -7 -18 6 -2 11 -8 11
-14 0 -6 -7 -8 -14 -5 -10 4 -13 1 -9 -9 4 -12 8 -12 22 -2 12 10 12 8 -2 -8
-15 -18 -15 -23 -4 -32 11 -9 19 -6 37 13 18 19 26 22 37 14 9 -9 17 -8 28 1
18 15 20 -1 3 -18 -7 -7 -17 -8 -28 -2 -13 7 -23 3 -40 -14 -21 -24 -22 -24
-41 -5 -10 10 -24 17 -31 15 -7 -1 -9 -1 -5 2 4 2 2 11 -5 20 -10 14 -10 15 2
5 18 -16 38 -17 22 -1 -19 19 -99 19 -106 1 -6 -14 -4 -14 11 -2 15 12 16 12
9 -5 -7 -20 -7 -20 15 0 20 17 22 17 16 2 -4 -10 -2 -18 4 -18 6 0 7 -4 4 -10
-3 -5 -1 -10 5 -10 6 0 4 -10 -6 -25 -9 -14 -21 -22 -27 -18 -6 4 -7 1 -2 -6
5 -9 17 -3 43 21 l36 33 -27 -33 c-15 -19 -27 -38 -27 -44 0 -6 -7 -8 -15 -4
-9 3 -19 -3 -25 -14 -6 -11 -14 -20 -18 -20 -12 0 -12 39 0 46 7 5 8 2 3 -6
-5 -9 -4 -11 4 -6 6 4 11 13 9 19 -3 18 12 57 22 57 5 0 7 -8 3 -17 -5 -14 -3
-15 7 -6 8 7 9 16 2 28 -8 16 -11 15 -26 -6 -16 -22 -18 -23 -30 -7 -7 10 -16
15 -19 12 -3 -3 -3 3 -1 13 6 21 -19 48 -34 39 -13 -8 11 -76 30 -90 13 -9 13
-13 2 -24 -9 -8 -12 -29 -9 -65 5 -61 -1 -72 -37 -73 -18 -1 -25 3 -21 12 7
18 -2 18 -20 -1 -13 -13 -16 -13 -21 1 -3 8 -2 12 4 9 6 -3 10 -2 10 2 0 10
-43 49 -48 44 -2 -1 -6 0 -10 3 -3 3 0 6 7 6 7 0 9 6 6 13 -4 6 0 4 8 -5 18
-23 31 -23 23 -1 -12 31 31 -15 44 -48 7 -16 17 -29 22 -29 10 0 -5 31 -41 80
-15 20 -32 35 -40 32 -8 -3 -12 3 -9 19 3 26 32 33 34 9 1 -8 2 -21 3 -27 0
-7 5 -13 11 -13 5 0 6 7 3 17 -4 11 -3 14 5 9 7 -4 20 -2 29 4 15 9 15 11 2 7
-11 -4 -16 0 -15 11 0 9 -4 16 -10 15 -13 -2 -15 28 -1 45 5 6 6 12 2 12 -4 0
-2 6 4 14 9 11 9 15 -1 19 -7 3 3 6 22 6 19 1 51 5 71 10 22 5 44 4 55 -2 17
-9 17 -8 -1 10 -19 18 -48 24 -60 11 -3 -3 -21 -2 -40 2 -21 5 -38 3 -44 -3
-8 -8 -11 -7 -11 2 0 11 -3 11 -15 1 -9 -7 -15 -8 -15 -2 0 14 -25 9 -47 -10
-22 -19 -44 -13 -37 10 4 10 -4 6 -18 -10 -20 -23 -31 -26 -78 -26 -93 0 -119
-4 -125 -20 -4 -12 -3 -13 10 -2 12 10 15 10 15 0 0 -10 3 -10 15 0 19 16 19
1 0 -24 -7 -10 -18 -15 -24 -11 -7 4 -8 0 -4 -11 4 -10 2 -15 -4 -11 -11 7
-10 -18 2 -45 4 -10 4 -25 1 -34 -4 -10 -2 -13 6 -8 7 5 9 2 5 -8 -3 -9 -3
-19 1 -23 8 -8 9 -13 11 -54 1 -32 44 -82 93 -107 18 -10 73 -21 122 -25 56
-6 99 -15 115 -26 14 -10 29 -17 33 -15 4 1 5 -5 2 -13 -5 -13 -19 -19 -26
-13 -2 1 -22 -9 -45 -22 -45 -25 -54 -44 -27 -54 12 -5 15 -14 10 -36 -8 -41
4 -37 38 11 l29 41 -28 -4 c-46 -5 -39 17 13 41 l49 23 30 -29 c46 -42 57 -50
110 -79 26 -15 55 -33 64 -40 8 -8 20 -14 25 -14 5 0 26 -9 46 -20 136 -73
382 -108 543 -77 44 9 83 13 87 11 4 -3 5 -30 2 -62 -4 -41 -2 -53 5 -42 6 8
11 38 11 65 l0 50 48 17 c68 25 193 94 217 121 11 13 39 36 63 51 23 16 42 32
42 35 0 8 33 51 78 102 20 23 31 43 26 50 -4 7 -3 9 3 6 7 -4 19 12 30 38 10
25 22 45 26 45 5 0 39 -14 75 -31 37 -17 97 -45 134 -61 37 -17 65 -35 62 -39
-3 -5 -17 -3 -32 5 -15 7 -33 11 -41 8 -9 -3 -11 0 -6 8 5 8 4 11 -2 7 -11 -7
-11 -36 1 -55 6 -10 11 -10 22 -1 9 7 14 8 14 1 0 -6 -4 -13 -10 -17 -13 -8 0
-37 14 -32 6 2 22 -1 36 -8 23 -11 27 -10 49 19 l25 31 -26 -23 c-22 -20 -26
-21 -32 -7 -3 9 -2 14 3 11 4 -3 17 4 27 16 11 12 14 18 8 15 -7 -4 -17 0 -24
8 -10 12 -7 13 17 6 15 -5 51 -19 80 -31 44 -20 50 -26 42 -41 -12 -24 -11
-32 4 -23 8 6 8 3 -1 -9 -12 -14 -11 -16 5 -12 31 6 71 23 77 34 7 11 -22 91
-33 91 -4 0 -17 -9 -29 -20 -17 -16 -22 -17 -22 -6 0 23 -33 76 -52 82 -10 3
-18 12 -18 20 0 8 -4 13 -9 10 -4 -3 -17 1 -27 10 -18 14 -18 15 3 4 19 -8 24
-7 33 11 9 16 19 20 41 17 24 -4 29 -2 24 11 -3 8 -3 12 1 9 4 -4 16 -3 27 3
14 8 18 8 13 0 -4 -6 -3 -11 2 -11 5 0 9 15 9 33 -1 30 34 103 44 92 3 -2 5 5
6 16 1 11 -1 18 -5 15 -4 -2 -16 0 -27 5 -12 5 22 7 85 5 79 -3 92 -2 50 4
-30 4 -66 10 -80 13 -14 3 -52 9 -85 13 -33 5 -64 9 -70 9 -5 1 -47 5 -93 10
-79 7 -83 9 -77 29 4 11 6 38 5 59 0 20 4 37 10 37 8 0 8 6 0 20 -9 17 -8 20
12 21 13 1 29 1 36 0 6 -1 12 3 12 10 0 9 3 9 14 0 8 -7 16 -8 18 -4 3 4 3 3
2 -4 -2 -7 1 -15 6 -18 6 -4 10 1 10 9 0 24 17 19 48 -12 15 -15 22 -21 16
-13 -24 34 -26 45 -4 24 19 -17 27 -19 46 -11 14 7 20 16 17 26 -4 10 -2 13 5
8 7 -4 12 -3 12 2 0 4 12 9 28 9 31 1 82 10 89 17 2 2 0 7 -6 11 -6 3 -11 1
-11 -5 0 -6 -11 2 -25 17 -15 17 -23 21 -19 11 3 -10 10 -18 16 -18 5 0 7 -4
4 -8 -6 -10 -57 -9 -74 2 -7 4 -12 2 -12 -5 0 -8 -3 -9 -13 0 -8 6 -16 9 -19
6 -3 -3 -11 1 -18 10 -7 9 -8 15 -2 15 6 0 13 -6 15 -12 4 -10 6 -9 6 1 1 11
4 11 16 1 9 -7 15 -8 15 -2 0 12 33 10 42 -3 12 -15 10 7 -2 25 -8 12 -10 12
-10 1 0 -11 -3 -11 -15 -1 -8 7 -15 8 -15 3 0 -8 -39 -10 -47 -3 -2 2 -8 3
-15 4 -27 3 -15 24 27 45 25 12 45 27 45 32 0 6 5 7 10 4 6 -3 10 -2 10 2 0 5
9 9 20 10 21 2 95 73 76 73 -7 0 -38 -7 -69 -15 -32 -8 -68 -15 -80 -15 -11 0
-66 -11 -122 -24 -102 -25 -255 -56 -271 -56 -5 1 7 10 26 21 30 17 31 19 10
16 -14 -3 -33 -8 -42 -12 -14 -5 -18 -2 -18 12 0 35 -87 220 -114 242 -9 7
-14 17 -11 21 8 13 -157 174 -220 215 -106 67 -149 91 -212 114 -35 13 -63 28
-63 34 0 8 -3 8 -11 0 -7 -7 -28 -6 -72 3 -70 15 -181 16 -277 2z m33 -55 c-7
-19 7 -16 24 5 13 15 13 15 3 -5 -5 -12 -15 -25 -21 -29 -8 -5 -8 -9 1 -14 7
-4 9 -13 6 -19 -13 -21 -23 -11 -20 19 2 17 0 30 -5 30 -11 0 -22 -26 -13 -34
3 -4 6 -15 7 -26 1 -11 -1 -18 -3 -15 -3 3 -11 0 -19 -6 -16 -14 -17 3 -1 19
9 9 9 12 -2 12 -7 0 -10 3 -7 7 4 3 2 12 -4 20 -9 10 -15 11 -26 2 -11 -10
-12 -8 -7 7 7 18 7 18 -13 1 -20 -17 -20 -17 -20 8 0 14 3 28 8 31 5 3 6 -3 2
-13 -6 -16 -5 -16 16 1 16 14 20 16 16 5 -4 -10 4 -20 22 -28 l28 -13 -20 23
-20 22 21 -11 c25 -13 45 1 37 27 -4 13 -3 13 5 2 6 -8 8 -20 5 -28z m124 19
c-24 -27 -21 -38 4 -16 22 19 22 19 10 -4 -7 -12 -20 -28 -31 -34 -15 -10 -17
-15 -7 -28 11 -13 10 -13 -5 -1 -16 12 -20 10 -36 -10 -24 -28 -66 -35 -51 -8
5 10 14 21 20 25 8 5 8 9 0 14 -9 5 -7 10 4 20 13 11 14 10 9 -5 -6 -14 -4
-16 7 -10 10 7 9 0 -4 -20 l-18 -30 25 28 c14 15 23 34 20 41 -3 8 -1 17 4 20
5 3 9 -2 8 -11 0 -9 5 -18 13 -21 10 -3 12 0 7 13 -6 16 17 55 32 55 3 0 -2
-8 -11 -18z m-152 -2 c3 -6 -1 -7 -9 -4 -18 7 -21 14 -7 14 6 0 13 -4 16 -10z
m-114 -23 c-10 -9 -11 -8 -5 6 3 10 9 15 12 12 3 -3 0 -11 -7 -18z m382 -2
c-3 -9 -8 -14 -10 -11 -3 3 -2 9 2 15 9 16 15 13 8 -4z m-433 2 c0 -2 -10 -12
-22 -23 l-23 -19 19 23 c18 21 26 27 26 19z m367 -14 c6 4 9 -5 7 -20 -1 -16
4 -32 14 -39 14 -10 15 -15 5 -25 -15 -15 -17 -33 -4 -25 5 3 12 -1 15 -10 6
-16 -31 -72 -47 -73 -5 -1 3 13 18 31 20 23 23 33 14 39 -7 4 -18 5 -23 2 -6
-4 -5 -8 3 -11 9 -3 8 -9 -5 -23 -12 -13 -21 -16 -34 -9 -17 9 -30 4 -30 -12
0 -5 5 -6 11 -2 6 3 3 -5 -6 -20 -20 -31 -30 -35 -15 -6 8 15 8 20 -1 20 -7 0
-5 8 6 20 13 14 22 17 35 10 17 -9 30 -4 30 12 0 5 -5 6 -11 2 -12 -7 -5 6 28
56 9 15 2 10 -19 -12 -20 -20 -38 -34 -41 -31 -3 3 -16 -6 -29 -19 -13 -13
-17 -17 -10 -8 19 26 14 35 -8 15 -25 -23 -26 -7 -1 23 22 25 33 29 25 8 -4
-11 0 -13 17 -9 l22 6 -24 19 c-13 11 -25 15 -27 9 -2 -5 -10 -7 -18 -4 -8 3
-14 0 -14 -7 0 -6 5 -8 11 -4 7 4 10 1 7 -6 -8 -26 -26 -22 -23 5 4 37 20 52
39 36 8 -7 21 -9 27 -5 7 4 9 3 6 -3 -4 -6 1 -17 10 -24 15 -12 16 -12 10 3
-4 12 -2 15 9 11 7 -3 14 0 14 5 0 6 -10 14 -21 17 -17 6 -19 9 -8 17 11 7 11
11 2 14 -10 4 -10 10 0 24 7 12 14 15 18 8 4 -6 11 -8 16 -5z m210 2 c0 -8 -4
-12 -9 -9 -4 3 -8 9 -8 15 0 5 4 9 8 9 5 0 9 -7 9 -15z m-131 -14 c-10 -11
-15 -24 -12 -29 3 -5 -1 -18 -10 -28 -14 -18 -15 -18 -5 2 6 12 8 24 5 27 -7
7 18 47 30 47 5 0 1 -9 -8 -19z m-392 -3 c-5 -8 9 -12 34 -9 15 2 16 -15 1
-24 -6 -4 -8 -13 -5 -21 3 -8 0 -11 -8 -8 -7 3 -18 -7 -25 -23 l-13 -28 23 20
22 20 -11 -21 c-6 -11 -19 -27 -28 -35 -13 -10 -16 -11 -10 -1 5 8 1 18 -9 26
-15 11 -16 16 -5 35 6 13 14 20 17 17 3 -3 0 -12 -7 -21 -7 -9 -10 -18 -8 -21
5 -5 48 48 48 59 0 14 -37 -1 -58 -23 l-24 -25 17 30 18 30 -28 -25 c-16 -14
-25 -18 -20 -10 17 32 37 48 53 43 11 -5 14 -2 10 9 -4 8 -1 15 8 15 7 0 11
-4 8 -9z m-68 -20 c-9 -13 -24 -34 -33 -48 -9 -14 -32 -42 -51 -63 -25 -29
-31 -42 -23 -51 8 -10 7 -17 -4 -26 -21 -18 -19 -35 3 -19 15 13 16 12 3 -3
-7 -10 -17 -15 -22 -12 -5 3 -9 1 -9 -5 0 -21 21 -22 38 -1 17 22 18 22 18 1
0 -11 -2 -18 -5 -16 -2 3 -10 0 -18 -6 -10 -9 -18 -7 -33 6 -18 16 -19 20 -5
35 18 20 20 37 2 22 -8 -7 -18 -7 -27 -2 -12 7 -11 12 5 32 l20 23 -23 -19
c-18 -16 -25 -17 -35 -7 -6 7 -7 12 -2 11 22 -5 29 1 15 11 -13 9 -13 10 2 6
9 -3 24 3 34 14 15 17 18 17 29 2 11 -14 13 -14 28 7 20 29 13 41 -9 14 -8
-10 -12 -13 -8 -5 14 27 -19 29 -43 2 l-25 -26 22 33 c12 18 25 30 30 27 5 -3
18 7 29 21 12 15 21 22 21 17 0 -6 -7 -16 -15 -23 -8 -7 -15 -18 -15 -24 0 -6
11 1 25 16 13 15 29 29 37 30 7 2 21 13 31 26 10 12 21 22 24 22 3 0 -2 -10
-11 -22z m143 -34 c-9 -9 -19 -10 -29 -4 -12 7 -11 12 5 30 17 19 20 19 28 4
6 -11 5 -21 -4 -30z m441 42 c0 -2 -8 -10 -17 -17 -16 -13 -17 -12 -4 4 13 16
21 21 21 13z m30 1 c0 -2 -10 -12 -22 -23 l-23 -19 19 23 c18 21 26 27 26 19z
m-109 -28 c12 -6 18 -17 15 -25 -3 -8 -2 -14 2 -14 4 0 6 -19 6 -42 -1 -24 3
-46 9 -50 8 -5 6 -13 -5 -25 -8 -10 -13 -25 -11 -33 2 -9 -1 -7 -7 3 -8 13 -9
22 -2 29 7 7 7 19 1 35 -5 14 -7 30 -3 36 3 7 -7 -2 -23 -20 -23 -26 -29 -29
-29 -13 0 10 4 18 9 17 5 -1 12 4 15 12 3 9 0 11 -9 6 -8 -5 -12 -6 -9 -2 3 3
8 5 11 4 9 -3 39 24 39 35 0 6 -8 4 -17 -3 -15 -11 -14 -9 1 9 11 12 16 25 13
29 -4 4 -14 -2 -23 -13 -15 -18 -15 -18 -5 3 8 16 8 23 -2 26 -6 3 -8 6 -4 6
5 1 17 -4 28 -10z m124 -10 c4 -6 -3 -22 -16 -35 -20 -21 -21 -27 -9 -34 10
-6 21 -4 33 7 14 13 20 14 30 4 9 -10 9 -11 -4 -6 -18 7 -52 -37 -56 -71 -2
-21 19 -26 45 -11 8 6 10 3 5 -10 -6 -17 -5 -17 14 0 11 9 22 17 26 17 11 0
-44 -55 -57 -56 -6 -1 -18 -2 -28 -3 -11 -1 -15 -7 -11 -21 5 -19 7 -19 18 -4
11 15 12 15 12 0 0 -16 -9 -20 -34 -17 -7 1 -13 -3 -13 -9 0 -5 5 -10 11 -10
8 0 8 -4 -1 -15 -9 -11 -15 -11 -24 -3 -17 16 -17 45 0 59 8 6 14 16 14 21 0
7 -5 7 -13 0 -9 -8 -13 -7 -13 6 -1 9 -4 24 -8 33 -4 9 3 26 19 45 19 21 24
24 19 9 -7 -19 -6 -19 12 -3 18 17 18 18 -1 32 -20 14 -20 15 5 41 21 22 22
28 10 35 -9 6 -10 10 -3 10 6 0 15 -5 18 -11z m55 -16 c0 -3 -7 -3 -15 1 -8 3
-15 0 -15 -6 0 -6 -3 -9 -6 -5 -11 10 6 26 21 20 8 -3 15 -7 15 -10z m-90 -7
c-7 -7 -13 -7 -20 0 -6 6 -3 10 10 10 13 0 16 -4 10 -10z m120 11 c0 -2 -10
-12 -22 -23 l-23 -19 19 23 c18 21 26 27 26 19z m-594 -34 c-8 -58 -29 -81
-57 -61 -11 8 -10 9 4 4 11 -4 17 -1 15 7 -4 16 22 77 33 77 5 0 7 -12 5 -27z
m30 10 c-6 -14 -3 -14 15 3 l22 19 -13 -25 -13 -25 23 20 23 20 -11 -21 c-6
-11 -18 -27 -27 -34 -13 -11 -15 -10 -10 3 4 10 -1 18 -15 22 -17 5 -19 10 -9
21 16 19 23 18 15 -3z m-175 -12 c-6 -10 -7 -21 -4 -25 3 -3 -1 -14 -11 -24
-9 -11 -14 -26 -11 -35 4 -8 2 -17 -3 -21 -5 -3 -8 8 -7 25 1 22 -2 28 -12 25
-8 -3 1 12 19 34 37 44 44 49 29 21z m-146 -9 c-3 -3 -11 0 -18 7 -9 10 -8 11
6 5 10 -3 15 -9 12 -12z m616 -21 c-6 -10 -18 -24 -28 -32 -12 -10 -11 -5 5
15 12 15 19 33 15 39 -3 6 -1 7 5 3 8 -5 9 -13 3 -25z m285 10 c0 -11 -4 -17
-9 -14 -4 3 -15 -3 -23 -13 -9 -11 -12 -12 -8 -4 6 13 35 50 38 50 1 0 2 -9 2
-19z m-508 -22 c-10 -5 -18 -15 -18 -20 0 -6 5 -7 12 -3 7 4 2 -6 -10 -23 -12
-17 -18 -34 -14 -38 4 -5 1 -5 -6 -1 -9 6 -10 12 0 29 7 12 11 26 10 31 -4 11
18 36 32 36 6 0 3 -5 -6 -11z m439 -11 c0 -13 -1 -17 -4 -10 -4 10 -8 10 -21
0 -12 -9 -11 -6 2 10 11 12 20 22 20 22 1 0 2 -10 3 -22z m-161 -18 c0 -12 -4
-16 -9 -11 -5 5 -6 14 -3 20 10 15 12 14 12 -9z m-755 -8 c-5 -10 -18 -25 -27
-33 -11 -9 -9 -2 6 19 26 35 36 42 21 14z m679 -12 l-21 -30 23 4 c13 3 25 5
28 5 3 1 -2 6 -10 11 -9 6 -10 10 -3 10 21 0 25 -21 7 -41 -20 -22 -8 -26 15
-5 11 11 21 12 31 5 13 -8 10 -13 -12 -30 -26 -20 -41 -48 -17 -33 8 5 8 1 0
-14 -12 -23 -31 -38 -31 -25 0 5 5 14 11 20 9 9 7 12 -9 10 -22 -1 -24 -18 -8
-47 5 -8 5 -12 1 -7 -5 4 -22 -5 -37 -20 -23 -21 -28 -23 -22 -9 6 15 4 18 -7
14 -17 -6 -24 28 -8 37 5 4 9 11 9 17 0 6 -7 5 -17 -3 -15 -11 -14 -9 1 9 11
12 16 25 13 29 -4 4 -13 -1 -20 -11 -12 -16 -13 -16 -12 7 0 32 34 72 49 57
15 -15 29 -12 23 4 -3 8 3 26 14 40 28 36 35 33 9 -4z m350 27 c0 -2 -10 -12
-22 -23 l-23 -19 19 23 c18 21 26 27 26 19z m-684 -35 c-18 -16 -18 -16 -6 6
6 13 14 21 18 18 3 -4 -2 -14 -12 -24z m34 9 c-5 -11 -15 -23 -21 -27 -6 -3
-3 5 6 20 20 30 30 35 15 7z m128 -16 c-3 -3 -9 2 -12 12 -6 14 -5 15 5 6 7
-7 10 -15 7 -18z m-504 -7 c-10 -12 -25 -28 -31 -36 -28 -30 -11 -24 24 9 35
33 36 33 19 5 -10 -16 -12 -25 -5 -21 9 6 10 3 5 -10 -5 -15 -4 -16 9 -5 10 9
12 16 5 20 -6 4 -2 14 10 28 17 18 24 20 40 10 12 -8 18 -19 15 -29 -3 -9 1
-22 10 -29 8 -7 13 -16 10 -20 -3 -5 0 -12 6 -16 8 -4 7 -9 -2 -15 -12 -7 -11
-10 1 -21 8 -7 13 -12 11 -11 -2 2 -10 -2 -18 -9 -11 -9 -12 -7 -7 8 7 18 7
18 -15 0 -22 -20 -22 -20 -15 0 7 18 7 18 -16 -1 -27 -23 -19 -3 13 32 11 13
17 26 14 30 -4 3 -7 1 -7 -5 0 -7 -5 -12 -11 -12 -8 0 -8 4 1 14 6 8 19 12 28
9 15 -5 14 -3 -2 13 -10 10 -20 15 -22 9 -10 -24 -23 -39 -30 -32 -4 4 3 18
15 31 19 20 21 28 11 43 -10 17 -11 17 -5 -3 3 -14 -4 -29 -25 -49 -16 -16
-30 -25 -30 -19 0 5 -7 1 -14 -9 -8 -10 -20 -15 -30 -11 -21 8 -21 26 0 22 10
-2 19 4 21 12 4 12 3 12 -5 2 -7 -11 -12 -11 -25 2 -9 9 -18 12 -21 7 -4 -5
-1 -11 5 -13 7 -2 5 -9 -5 -17 -14 -12 -16 -12 -10 4 5 13 4 16 -5 11 -7 -4
-9 -16 -5 -28 5 -17 3 -18 -14 -9 -18 9 -26 6 -52 -21 -23 -24 -29 -27 -21
-11 6 12 20 28 31 36 11 8 17 17 12 22 -4 4 1 5 10 2 11 -4 24 3 37 19 12 16
25 23 32 18 9 -5 10 -2 6 10 -4 9 -3 15 2 12 4 -3 19 6 31 19 29 31 40 33 14
3z m602 10 c4 -7 4 -10 -1 -6 -9 9 -35 -9 -35 -24 0 -6 7 -5 15 2 22 18 19 6
-4 -14 -17 -16 -18 -16 -16 1 4 44 26 66 41 41z m424 9 c0 -2 -10 -12 -22 -23
l-23 -19 19 23 c18 21 26 27 26 19z m-790 -37 c-6 -11 -8 -26 -4 -32 5 -7 3
-8 -6 -3 -10 6 -12 4 -7 -8 4 -11 2 -14 -8 -11 -10 4 -11 11 -5 22 5 10 11 25
14 35 3 9 10 17 16 17 8 0 7 -6 0 -20z m140 6 c0 -2 -8 -10 -17 -17 -16 -13
-17 -12 -4 4 13 16 21 21 21 13z m715 -24 c-3 -3 -11 0 -18 7 -9 10 -8 11 6 5
10 -3 15 -9 12 -12z m-712 -7 c-3 -9 -8 -14 -10 -11 -3 3 -2 9 2 15 9 16 15
13 8 -4z m557 12 c0 -2 -10 -12 -22 -23 l-23 -19 19 23 c18 21 26 27 26 19z
m61 -20 c-10 -9 -11 -8 -5 6 3 10 9 15 12 12 3 -3 0 -11 -7 -18z m-54 -5 c-21
-23 -22 -39 -2 -22 13 11 14 10 9 -5 -5 -13 -4 -16 4 -11 7 4 12 2 12 -4 0 -6
5 -8 11 -4 8 4 8 0 0 -15 -14 -25 -23 -28 -14 -3 4 11 -5 7 -26 -13 -18 -16
-30 -23 -26 -14 4 10 -3 20 -20 29 -14 7 -23 15 -21 18 3 2 15 -3 28 -12 28
-20 34 -20 42 -1 3 9 1 15 -7 14 -37 -5 -40 2 -12 31 31 32 49 42 22 12z
m-397 -28 c0 -8 -4 -14 -9 -14 -11 0 -22 26 -14 34 9 9 23 -3 23 -20z m500 23
c0 -2 -10 -12 -22 -23 l-23 -19 19 23 c18 21 26 27 26 19z m-1017 -44 c-6 -16
-5 -16 10 -4 23 19 21 -2 -2 -23 -12 -11 -21 -14 -26 -7 -3 6 -11 11 -17 11
-7 0 -7 -5 1 -14 9 -10 8 -15 -3 -19 -11 -4 -13 -1 -9 11 6 15 5 15 -10 3 -16
-12 -17 -12 -11 5 7 18 6 18 -16 -1 -22 -19 -21 -8 3 23 8 11 12 11 19 0 6
-11 10 -10 17 1 6 9 11 10 15 2 4 -6 12 -11 17 -11 6 0 7 5 4 10 -3 6 -3 15 0
20 10 16 15 11 8 -7z m-105 -30 c-25 -24 -56 -25 -42 0 4 7 -5 1 -21 -13 -28
-25 -26 -12 3 22 11 13 19 15 32 8 13 -7 21 -5 30 5 7 9 15 13 18 10 3 -3 -6
-17 -20 -32z m1157 27 c3 -6 -1 -7 -9 -4 -9 3 -16 2 -16 -4 0 -6 5 -12 11 -14
5 -2 -2 -15 -18 -28 -19 -17 -22 -18 -10 -4 22 27 22 42 -1 21 -16 -15 -18
-15 -18 3 0 10 3 17 7 14 4 -2 12 3 19 11 14 17 26 19 35 5z m-519 -36 c11
-27 12 -40 4 -48 -8 -8 -9 -6 -5 7 4 9 3 17 -2 17 -5 0 -10 6 -10 13 0 6 -4
20 -8 30 -4 9 -4 17 -1 17 4 0 14 -16 22 -36z m589 24 c5 4 5 -1 2 -10 -4 -10
-2 -18 4 -18 6 0 7 -5 3 -12 -6 -9 -9 -9 -12 0 -2 7 -9 9 -14 6 -7 -5 -8 -2
-4 5 5 7 0 19 -10 27 -18 14 -18 15 2 5 12 -6 25 -7 29 -3z m-379 -13 c-3 -8
-1 -15 4 -15 14 0 12 -47 -2 -56 -8 -5 -9 -1 -4 12 5 14 4 16 -4 8 -14 -13 -2
-46 14 -37 6 3 2 -4 -9 -18 -11 -13 -21 -25 -21 -27 -6 -11 5 116 11 131 9 21
19 23 11 2z m87 -2 c-6 -16 -5 -17 12 -3 13 10 16 11 11 2 -5 -8 -1 -18 10
-27 16 -11 22 -11 39 3 11 9 14 10 8 2 -21 -24 -14 -34 9 -14 l22 19 -20 -26
-19 -27 -26 22 c-15 11 -34 26 -44 32 -11 6 -15 15 -11 22 11 18 16 14 9 -5z
m327 7 c0 -5 -5 -10 -11 -10 -5 0 -7 5 -4 10 3 6 8 10 11 10 2 0 4 -4 4 -10z
m31 -37 c13 -16 12 -17 -3 -4 -10 7 -18 15 -18 17 0 8 8 3 21 -13z m-541 4 c0
-2 -14 -16 -32 -33 l-31 -29 23 33 c20 27 40 42 40 29z m410 -27 c0 -5 -5 -10
-11 -10 -5 0 -7 5 -4 10 3 6 8 10 11 10 2 0 4 -4 4 -10z m-215 -11 c11 -16 1
-19 -13 -3 -7 8 -8 14 -3 14 5 0 13 -5 16 -11z m309 -4 c-6 -14 6 -20 29 -16
11 2 -8 -33 -26 -47 -12 -10 -14 -7 -11 18 2 16 -1 30 -6 30 -6 0 -10 -5 -10
-12 0 -6 -3 -8 -7 -5 -3 4 2 16 12 27 22 24 26 25 19 5z m-1417 -34 c-13 -16
-27 -27 -30 -24 -8 7 4 34 12 28 4 -2 14 5 21 15 8 11 16 17 18 15 3 -2 -7
-18 -21 -34z m833 4 c0 -5 -5 -3 -10 5 -5 8 -10 20 -10 25 0 6 5 3 10 -5 5 -8
10 -19 10 -25z m330 10 c13 -14 21 -25 18 -25 -2 0 -15 11 -28 25 -13 14 -21
25 -18 25 2 0 15 -11 28 -25z m123 2 c4 3 7 4 7 0 0 -17 -20 -14 -36 6 -19 22
-19 22 2 4 11 -9 24 -14 27 -10z m-41 -5 c8 -8 3 -20 -16 -42 -14 -17 -26 -28
-26 -24 0 4 10 18 22 31 19 20 20 26 8 33 -9 5 -19 5 -26 -1 -8 -6 -13 -5 -17
5 -7 17 38 15 55 -2z m-1082 -22 c0 -5 -5 -10 -11 -10 -5 0 -7 5 -4 10 3 6 8
10 11 10 2 0 4 -4 4 -10z m1060 7 c0 -2 -9 -12 -19 -21 -14 -13 -21 -14 -27
-5 -4 7 -3 10 3 6 6 -4 16 0 23 8 12 14 20 19 20 12z m110 0 c0 -2 -10 -12
-22 -23 l-23 -19 19 23 c18 21 26 27 26 19z m196 -8 c3 -6 -2 -18 -12 -27 -17
-16 -17 -16 -4 1 12 16 12 20 -1 28 -9 5 -10 9 -2 9 6 0 15 -5 19 -11z m-479
-21 c-3 -8 -6 -5 -6 6 -1 11 2 17 5 13 3 -3 4 -12 1 -19z m227 14 c3 -5 -1 -9
-9 -9 -8 0 -12 4 -9 9 3 4 7 8 9 8 2 0 6 -4 9 -8z m69 -9 c-4 -11 -3 -14 5 -9
7 4 12 2 12 -4 0 -7 -8 -9 -20 -5 -11 3 -20 2 -20 -3 0 -12 29 -24 40 -17 5 3
12 0 16 -7 4 -7 3 -10 -1 -5 -5 4 -23 -6 -40 -23 -29 -28 -32 -29 -51 -14 -18
15 -18 15 2 5 17 -8 25 -6 38 8 23 25 20 38 -4 16 -20 -18 -21 -18 -48 10
l-27 29 27 -23 c16 -14 31 -21 35 -18 3 4 -2 14 -13 23 -10 8 -13 13 -6 9 7
-4 21 4 33 19 24 30 31 33 22 9z m128 0 c11 -15 11 -16 -1 -6 -11 11 -19 8
-40 -12 -26 -24 -28 -25 -41 -8 -12 16 -12 17 2 6 13 -11 20 -8 39 12 28 30
24 29 41 8z m-1108 -36 c-11 -22 -18 -27 -21 -17 -3 7 0 16 7 18 6 2 9 8 5 13
-7 12 5 31 17 24 5 -4 2 -20 -8 -38z m1187 30 c0 -2 -10 -12 -22 -23 l-23 -19
19 23 c18 21 26 27 26 19z m-313 -19 c-2 -7 3 -19 12 -26 13 -10 14 -12 1 -10
-20 4 -29 18 -23 35 6 17 16 17 10 1z m219 -5 c0 -11 6 -17 16 -17 23 2 14
-12 -11 -19 -16 -4 -19 0 -16 22 3 30 4 31 9 31 2 0 3 -8 2 -17z m-405 -5 c1
-7 1 -17 0 -21 -1 -4 4 -17 10 -29 6 -11 13 -39 15 -62 3 -22 7 -47 10 -55 3
-11 1 -11 -10 -2 -11 9 -16 9 -22 0 -4 -7 -3 -9 3 -6 6 4 14 0 17 -10 8 -21
-21 -53 -42 -46 -10 4 -13 2 -8 -5 5 -8 2 -10 -8 -6 -17 7 -21 31 -7 52 6 10
10 9 14 -7 7 -28 24 -27 21 2 -1 12 -3 35 -3 52 -1 31 -15 25 -25 -10 -3 -11
-3 -6 0 10 3 17 5 39 5 50 0 16 2 17 9 5 11 -17 12 -14 14 40 1 28 -3 39 -11
36 -7 -3 -10 1 -6 10 6 17 23 19 24 2z m492 -13 c-3 -9 -8 -14 -10 -11 -3 3
-2 9 2 15 9 16 15 13 8 -4z m-549 -45 c-5 -13 -12 -46 -16 -76 -1 -6 -7 -11
-15 -11 -8 0 -9 5 -4 11 9 12 11 21 14 84 2 37 4 40 15 25 7 -10 10 -24 6 -33z
m419 19 c-15 -16 -22 -18 -28 -8 -5 8 -4 10 3 5 6 -4 17 2 24 13 7 11 14 18
17 15 3 -2 -4 -14 -16 -25z m-44 4 c-3 -21 2 -44 9 -39 4 2 14 1 22 -4 10 -6
23 -1 41 16 32 31 48 16 23 -21 -15 -23 -43 -38 -29 -16 3 6 -3 10 -12 10 -10
0 -27 2 -38 5 -11 2 -23 5 -27 5 -4 1 -5 8 -2 16 9 24 -2 18 -21 -12 -14 -21
-15 -25 -3 -20 13 4 13 1 4 -19 -6 -13 -14 -24 -18 -24 -15 0 2 64 23 86 24
25 30 29 28 17z m241 -3 c0 -5 -5 -10 -11 -10 -5 0 -7 5 -4 10 3 6 8 10 11 10
2 0 4 -4 4 -10z m-60 -4 c0 -2 -7 -9 -15 -16 -13 -11 -14 -10 -9 4 5 14 24 23
24 12z m-727 -73 c-7 -3 -9 -12 -6 -21 4 -13 3 -14 -6 -6 -14 13 -3 47 12 37
8 -5 8 -8 0 -10z m547 13 c0 -2 -8 -10 -17 -17 -16 -13 -17 -12 -4 4 13 16 21
21 21 13z m641 -48 c31 -43 17 -34 -21 15 -19 23 -26 36 -17 28 10 -8 27 -27
38 -43z m-1037 -16 c3 -5 -1 -9 -9 -9 -8 0 -12 4 -9 9 3 4 7 8 9 8 2 0 6 -4 9
-8z m976 -13 c0 -6 -4 -7 -10 -4 -5 3 -10 11 -10 16 0 6 5 7 10 4 6 -3 10 -11
10 -16z m44 13 c2 -4 -5 -9 -17 -9 -17 -2 -19 0 -7 7 18 12 18 12 24 2z m-263
-19 c13 -16 12 -17 -3 -4 -17 13 -22 21 -14 21 2 0 10 -8 17 -17z m303 -29 c9
-24 2 -26 -12 -4 -7 11 -8 20 -3 20 5 0 12 -7 15 -16z m-944 -25 c0 -11 -6
-27 -14 -35 -19 -19 -27 -18 -19 3 5 11 3 14 -6 8 -8 -4 -6 4 4 19 21 31 35
34 35 5z m600 12 c0 10 3 10 12 1 15 -15 32 -16 23 -2 -3 6 3 10 15 10 14 0
19 -4 14 -12 -5 -9 -2 -8 10 1 30 25 39 3 37 -86 l-1 -52 -32 5 c-18 2 -51 7
-72 9 -45 5 -61 15 -24 15 30 0 54 45 43 80 -7 21 -33 24 -47 5 -5 -6 -12 -5
-17 5 -13 19 8 33 26 18 10 -8 13 -7 13 3z m-160 -21 c8 -12 10 -12 10 -1 0
11 3 11 15 1 13 -11 14 -10 8 6 -6 17 -5 18 12 4 11 -9 16 -10 11 -2 -4 6 -3
12 1 12 5 0 15 -6 22 -12 11 -11 12 -10 6 1 -5 9 -3 12 6 9 16 -5 21 -47 9
-63 -9 -10 -10 -16 -10 -38 0 -7 -9 -13 -21 -14 -13 -1 -19 3 -16 11 3 8 -4
18 -16 23 -30 12 -70 5 -64 -12 4 -10 0 -10 -24 -2 -17 7 -27 17 -25 24 3 7 1
15 -4 18 -6 4 -10 16 -10 28 0 18 2 19 10 7 8 -12 10 -12 10 -1 0 11 3 11 17
0 14 -12 16 -12 11 2 -8 21 29 20 42 -1z m-161 -20 c11 -24 11 -24 -3 -6 -9
11 -16 24 -16 30 0 12 5 7 19 -24z m-244 10 c3 -5 1 -10 -4 -10 -6 0 -11 5
-11 10 0 6 2 10 4 10 3 0 8 -4 11 -10z m-105 -54 c-7 -7 -14 -6 -22 3 -11 11
-10 12 1 6 11 -6 13 -4 7 10 -5 15 -4 16 9 5 11 -9 13 -16 5 -24z m280 24 c0
-5 -10 -10 -22 -9 -22 0 -22 1 -3 9 11 5 21 9 23 9 1 1 2 -3 2 -9z m-400 -34
c0 -8 -7 -16 -15 -20 -13 -4 -14 -2 -5 14 13 23 20 26 20 6z m175 -16 c-10
-11 -22 -17 -27 -14 -5 3 -16 -2 -23 -12 -8 -11 -15 -15 -15 -10 0 5 -7 3 -15
-4 -9 -7 -18 -10 -22 -6 -4 3 2 13 13 20 12 9 21 11 25 4 4 -5 9 -2 13 7 4 11
12 15 22 11 12 -5 15 -2 10 9 -3 9 -2 13 3 10 5 -3 13 0 16 6 4 5 10 8 13 5 3
-3 -3 -15 -13 -26z m-185 -35 c-7 -9 -15 -13 -18 -10 -3 2 1 11 8 20 7 9 15
13 18 10 3 -2 -1 -11 -8 -20z m-840 -20 c0 -9 -7 -18 -15 -21 -8 -4 -12 -11
-8 -17 4 -6 1 -7 -7 -2 -9 5 -10 1 -6 -16 6 -21 5 -22 -4 -6 -9 13 -9 22 0 31
8 11 7 18 -5 30 -15 15 -14 16 14 16 21 0 31 -5 31 -15z m340 -5 c0 -5 -5 -10
-11 -10 -5 0 -7 5 -4 10 3 6 8 10 11 10 2 0 4 -4 4 -10z m-489 -17 c13 -16 12
-17 -3 -4 -17 13 -22 21 -14 21 2 0 10 -8 17 -17z m424 -2 c-3 -6 -11 -11 -17
-11 -6 0 -6 6 2 15 14 17 26 13 15 -4z m314 -3 c-5 -10 -15 -18 -22 -17 -9 0
-9 2 1 6 19 7 14 23 -5 17 -13 -4 -14 -3 -5 3 23 17 42 12 31 -9z m470 -12
c-3 -3 -11 5 -18 17 -13 21 -12 21 5 5 10 -10 16 -20 13 -22z m-14 -25 c-3 -9
4 -5 15 8 11 12 17 27 14 32 -3 5 -3 9 -1 9 8 0 278 -118 284 -124 6 -6 -23
-9 -30 -3 -8 5 -36 -26 -31 -34 3 -5 1 -9 -5 -9 -6 0 -20 -10 -32 -22 -12 -13
-18 -16 -14 -8 5 8 -3 5 -16 -6 -13 -12 -35 -27 -48 -34 -21 -11 -23 -10 -18
4 6 15 4 15 -17 -1 -13 -10 -21 -22 -18 -28 3 -5 7 -4 10 3 2 7 8 12 14 12 6
0 6 -6 -2 -15 -7 -8 -16 -13 -20 -10 -5 3 -11 1 -15 -5 -4 -6 -11 -7 -17 -4
-7 4 -8 2 -4 -4 4 -7 3 -12 -2 -12 -5 0 -19 -9 -32 -20 -12 -11 -27 -17 -33
-13 -5 3 -7 0 -5 -8 3 -8 12 -12 19 -10 8 2 19 4 26 4 7 0 10 4 7 8 -2 4 5 10
16 14 11 3 20 11 20 17 0 6 3 9 6 5 3 -3 18 5 32 18 31 29 43 24 16 -7 -10
-13 -13 -18 -5 -12 8 7 25 9 46 4 28 -6 37 -4 52 14 l18 21 -22 -19 c-13 -11
-24 -16 -24 -13 -1 4 -2 12 -3 19 -2 19 -26 21 -26 2 0 -9 -3 -15 -6 -11 -11
11 7 46 28 53 12 3 42 22 68 40 26 19 51 30 56 26 5 -4 6 -3 2 2 -9 11 32 34
49 28 7 -2 10 -9 6 -15 -3 -5 -2 -7 4 -4 12 8 106 -27 110 -40 2 -6 -13 -34
-33 -63 -20 -29 -30 -49 -22 -45 15 9 -31 -46 -48 -57 -6 -4 -23 -25 -39 -48
-15 -22 -36 -40 -45 -40 -10 0 -21 -7 -24 -16 -4 -9 -13 -14 -22 -10 -8 3 -12
2 -9 -4 3 -6 1 -10 -5 -10 -6 0 -9 -4 -6 -9 5 -7 -42 -22 -143 -44 -8 -2 -20
-12 -29 -23 -12 -16 -14 -16 -9 -2 7 21 -21 20 -47 -1 -9 -8 -19 -11 -23 -7
-3 3 -1 6 5 6 7 0 12 4 12 8 0 5 -21 8 -47 7 -41 -1 -50 -5 -63 -28 -8 -15
-21 -29 -28 -32 -7 -3 -4 7 8 23 19 24 20 27 5 30 -9 2 -23 -2 -32 -10 -12 -9
-15 -9 -9 0 9 15 -6 16 -22 0 -16 -16 -16 4 1 22 6 8 3 7 -9 -3 -11 -9 -24
-14 -29 -10 -4 5 -3 -2 3 -13 6 -12 9 -24 6 -26 -2 -3 3 -11 12 -18 13 -12 17
-11 26 1 8 12 9 12 5 -1 -2 -9 -14 -14 -27 -12 -13 1 -35 -8 -49 -20 -20 -18
-22 -18 -9 -3 9 11 18 27 20 35 2 8 6 17 10 20 4 3 -1 14 -12 23 -11 9 -20 12
-20 6 0 -6 -6 -9 -13 -6 -7 3 -13 -3 -13 -14 0 -16 2 -17 16 -4 9 8 19 12 23
9 10 -10 -36 -42 -53 -37 -9 3 -7 -1 4 -8 15 -9 20 -9 28 5 5 9 14 16 20 16 7
0 -1 -13 -16 -29 -26 -27 -64 -33 -49 -7 4 6 -1 4 -11 -4 -22 -18 -60 -25 -50
-9 5 8 2 9 -10 2 -19 -10 -86 -5 -86 8 0 4 5 11 12 15 7 5 8 3 3 -5 -9 -15 40
14 73 43 12 11 22 16 22 11 0 -4 9 0 19 9 11 10 31 19 44 20 14 0 23 4 21 8
-2 4 6 14 18 22 13 10 17 16 9 16 -8 0 -11 3 -8 6 4 4 13 1 21 -5 12 -10 19
-8 35 8 24 24 81 55 81 44 0 -5 4 -2 9 6 8 12 12 12 25 2 8 -7 20 -9 27 -5 7
4 10 2 7 -7 -3 -8 -11 -13 -17 -11 -6 1 -11 -2 -11 -8 0 -5 -5 -10 -11 -10 -7
0 -8 7 -4 17 4 12 -5 7 -27 -12 -18 -16 -27 -23 -20 -15 6 8 12 19 12 24 0 6
-7 3 -15 -7 -7 -11 -11 -26 -8 -35 6 -16 5 -16 -13 0 -18 15 -20 15 -38 -10
l-20 -27 22 18 c13 12 26 16 34 11 18 -12 40 -11 57 1 12 8 13 6 8 -9 -6 -16
-5 -17 7 -7 22 18 -2 44 -24 27 -13 -9 -13 -9 -3 5 13 16 47 19 60 4 5 -4 3
-5 -3 -2 -7 4 -11 -3 -11 -19 0 -23 1 -24 16 -10 13 12 20 13 29 4 8 -8 15 -8
25 0 8 7 17 9 20 6 4 -4 18 -8 33 -10 l27 -3 -22 22 c-19 19 -23 20 -31 7 -9
-13 -10 -13 -10 0 -1 11 -4 10 -15 -4 -8 -11 -15 -15 -15 -9 0 6 9 22 20 36
24 30 24 33 4 41 -12 5 -15 2 -10 -9 3 -10 2 -13 -5 -10 -5 4 -7 14 -5 23 6
20 -13 53 -20 36 -3 -6 -11 -20 -18 -30 -12 -16 -16 -16 -30 -5 -15 12 -11 17
34 43 37 21 49 33 42 41 -5 7 -9 28 -8 48 2 40 -18 45 -27 7 -3 -11 -9 -18
-14 -15 -5 3 -9 -3 -9 -13 0 -12 5 -16 16 -12 9 3 6 -5 -9 -21 -13 -15 -27
-24 -32 -22 -16 11 -37 -7 -33 -28 4 -20 3 -19 -6 2 -7 17 -7 28 0 35 5 5 10
15 10 21 0 5 -5 3 -11 -5 -8 -12 -9 -11 -5 5 3 11 6 38 7 60 2 22 7 45 12 52
5 7 6 17 2 23 -4 6 1 21 12 32 10 12 13 19 7 15 -7 -4 -10 8 -10 32 1 22 5 37
10 33 5 -3 6 3 2 14 -6 15 -5 17 5 7 15 -15 33 -17 24 -3 -3 5 -2 18 4 27 8
15 9 12 6 -12 -2 -16 -4 -34 -4 -39 -1 -4 -9 -5 -18 -1 -14 5 -15 4 -6 -6 10
-10 17 -9 34 7 23 21 48 61 31 50 -6 -3 -9 4 -8 18 0 13 5 22 10 18 5 -3 6 3
2 13 -7 18 -6 18 14 0 11 -10 18 -26 15 -34z m-1207 14 c-3 -3 -9 2 -12 12 -6
14 -5 15 5 6 7 -7 10 -15 7 -18z m-47 -4 c-6 -10 -7 -22 -3 -26 4 -5 -1 -5
-10 -2 -21 7 -23 -3 -5 -23 10 -12 9 -12 -5 -1 -21 16 -23 9 -7 -22 17 -30 59
-74 59 -60 0 7 -4 15 -10 18 -5 3 -14 14 -19 24 -8 14 -6 18 7 18 9 0 23 -5
31 -11 11 -9 13 -6 8 14 -4 14 -4 20 -1 13 3 -7 11 -11 17 -9 7 1 9 1 4 -1 -4
-3 -4 -9 -1 -15 12 -20 -20 -28 -40 -10 -19 17 -19 17 -1 -12 11 -16 21 -24
23 -17 2 6 8 11 13 11 6 0 8 -4 5 -9 -4 -5 0 -12 6 -14 10 -4 9 -8 -2 -16 -13
-9 -9 -15 10 -13 3 0 7 -9 7 -20 2 -20 1 -20 -20 -2 l-21 19 16 -25 c9 -14 21
-24 27 -23 6 2 8 -3 5 -11 -10 -26 22 -43 75 -41 28 1 51 -2 51 -6 0 -10 -7
-11 -92 -13 -50 -2 -56 0 -48 14 7 13 4 16 -13 14 -12 -1 -26 -3 -30 -3 -5 -1
-5 -7 -1 -13 6 -10 5 -10 -8 -1 -8 7 -19 9 -23 5 -5 -4 -5 -2 -2 4 4 6 -1 20
-9 30 -14 17 -15 17 -10 1 8 -24 -10 -12 -26 16 -10 20 -10 21 5 8 22 -17 22
-7 0 26 -10 15 -12 24 -5 20 6 -5 12 -4 12 0 0 5 -6 15 -12 23 -11 12 -10 12
5 1 18 -14 20 -12 11 13 -3 8 -13 13 -22 10 -15 -5 -15 -4 1 6 20 13 23 32 3
24 -7 -3 -16 2 -20 12 -5 14 -4 15 9 4 9 -8 15 -8 15 -2 0 6 -5 14 -10 17 -6
4 -4 12 5 22 9 9 14 22 10 31 -4 12 -3 12 9 3 11 -9 15 -8 20 4 3 8 8 15 11
15 3 0 1 -8 -4 -19z m496 -20 c-13 -16 -28 -27 -31 -24 -4 4 -20 -9 -37 -28
-17 -19 -26 -26 -19 -17 6 9 9 22 5 28 -4 6 1 20 11 31 14 15 20 17 32 7 12
-10 18 -8 36 13 11 15 23 25 25 23 2 -2 -8 -17 -22 -33z m-484 -22 c-6 -6 -9
-1 -7 13 3 33 6 36 11 14 3 -10 1 -22 -4 -27z m981 -24 c-4 -8 -11 -15 -17
-15 -6 0 -7 -3 -4 -6 4 -4 14 -1 24 7 15 12 16 12 10 -3 -4 -11 -2 -15 6 -12
15 5 17 -33 3 -55 -7 -10 -6 -12 4 -6 10 6 12 2 6 -16 -3 -13 -9 -51 -12 -84
-4 -33 -14 -69 -23 -79 -9 -11 -10 -16 -3 -12 9 5 12 -4 10 -39 -1 -51 -10
-62 -28 -40 -7 8 -21 15 -32 15 -10 0 -16 4 -13 10 4 6 -1 7 -11 3 -12 -4 -15
-3 -10 5 5 8 1 10 -11 5 -16 -6 -17 -5 -3 13 14 18 14 18 -3 4 -17 -12 -20
-12 -28 3 -6 9 -20 17 -32 17 -21 1 -21 1 -3 12 15 8 21 7 28 -6 5 -9 14 -16
21 -16 8 0 7 3 -2 9 -8 5 -10 14 -6 21 6 9 4 11 -5 5 -10 -6 -12 -4 -6 10 7
18 6 18 -13 1 -17 -16 -23 -17 -37 -6 -12 11 -17 11 -23 1 -7 -10 -9 -10 -14
2 -4 10 1 14 16 13 12 -1 26 3 30 9 5 6 6 1 2 -10 -5 -15 -3 -17 6 -8 13 13 2
36 -13 27 -7 -5 -9 -2 -6 8 4 8 2 21 -4 29 -8 11 -9 11 -5 -3 7 -20 -23 -21
-41 -2 -9 10 -6 18 15 34 15 11 32 19 39 16 8 -3 11 1 7 10 -4 10 0 12 13 7
13 -5 15 -3 9 7 -6 9 -4 11 5 5 10 -6 12 -4 6 10 -5 15 -4 16 9 5 9 -7 18 -10
22 -7 3 4 12 -1 20 -11 12 -16 13 -16 7 1 -3 9 -2 17 3 17 4 0 14 10 22 23 13
21 13 21 -13 -2 -18 -17 -26 -20 -26 -10 0 12 -2 12 -9 0 -6 -9 -11 -10 -15
-2 -4 6 -2 12 3 12 6 1 17 2 24 3 6 1 11 8 9 15 -1 7 2 10 7 7 5 -3 14 1 21 9
7 8 17 12 23 8 6 -4 8 0 4 11 -4 9 -3 15 2 12 5 -3 14 1 21 9 16 19 21 19 14
0z m-286 -32 c-13 -15 -14 -20 -3 -30 7 -6 16 -9 19 -6 3 4 6 2 6 -4 0 -6 -7
-14 -16 -17 -8 -3 -12 -2 -9 4 10 16 -7 12 -19 -5 -8 -11 -15 -12 -26 -4 -13
9 -12 10 3 5 17 -5 19 -2 20 45 1 18 6 25 14 22 7 -3 13 1 13 8 0 7 3 9 7 6 3
-4 -1 -15 -9 -24z m1113 0 c13 -16 12 -17 -3 -4 -17 13 -22 21 -14 21 2 0 10
-8 17 -17z m-1678 -68 c-3 -9 -8 -14 -10 -11 -3 3 -2 9 2 15 9 16 15 13 8 -4z
m1811 7 c2 -4 -4 -8 -14 -8 -10 0 -16 4 -14 8 3 4 9 8 14 8 5 0 11 -4 14 -8z
m50 -28 c3 -8 2 -12 -4 -9 -6 3 -10 10 -10 16 0 14 7 11 14 -7z m56 2 c0 -2
-7 -7 -16 -10 -8 -3 -12 -2 -9 4 6 10 25 14 25 6z m-1312 -101 c-3 -3 -9 2
-12 12 -6 14 -5 15 5 6 7 -7 10 -15 7 -18z m-468 -7 c0 6 9 12 21 12 13 0 18
-4 13 -12 -4 -7 -3 -8 5 -4 20 13 61 14 61 2 0 -7 3 -8 8 -1 9 14 76 19 67 6
-3 -6 -13 -7 -22 -4 -11 4 -14 3 -9 -5 5 -8 -1 -12 -15 -12 -12 0 -31 -8 -42
-17 -15 -13 -18 -14 -13 -3 5 8 -3 2 -18 -14 l-26 -29 -9 24 c-5 13 -10 20
-11 14 0 -5 -7 1 -15 15 -16 28 -20 54 -5 30 6 -10 10 -11 10 -2z m375 2 c4
-6 1 -19 -6 -28 -13 -16 -12 -16 6 0 20 16 23 16 73 -8 29 -14 52 -27 52 -30
0 -3 -4 -3 -8 0 -4 2 -8 -4 -8 -15 0 -19 1 -19 13 -2 11 14 17 15 31 6 9 -7
43 -24 74 -39 31 -14 59 -32 62 -40 3 -8 0 -11 -8 -8 -8 3 -21 -4 -29 -16 -12
-17 -15 -18 -20 -5 -9 21 -28 19 -20 -2 3 -10 2 -15 -2 -10 -5 4 -20 -3 -33
-15 l-25 -23 19 30 18 30 -22 -19 c-21 -18 -31 -11 -14 10 4 5 -1 1 -10 -9
-13 -14 -22 -16 -35 -8 -13 7 -23 5 -37 -7 -11 -9 -17 -12 -13 -7 3 6 -3 11
-13 11 -10 0 -17 -3 -15 -6 1 -3 -8 -13 -21 -23 -25 -19 -33 -11 -11 13 6 8 3
7 -9 -3 -29 -24 -41 -21 -18 6 10 12 12 16 4 10 -21 -19 -34 -16 -19 5 13 15
12 16 -4 3 -15 -12 -20 -11 -41 8 -22 21 -23 21 -39 3 -19 -20 -23 -37 -7 -27
13 8 50 -13 49 -28 0 -9 -2 -9 -6 1 -2 6 -9 10 -14 6 -5 -3 -9 -1 -9 5 0 6 -6
8 -13 5 -7 -2 -19 1 -27 8 -9 7 -13 12 -11 10 7 -4 41 30 41 41 0 6 -10 2 -22
-9 l-23 -19 19 23 c11 12 26 22 35 22 12 0 13 2 3 9 -17 11 -22 44 -8 54 15 9
-25 4 -41 -6 -7 -5 -13 -13 -13 -19 0 -6 7 -5 17 3 15 12 16 12 10 -3 -3 -9
-2 -18 3 -20 4 -2 1 -10 -8 -18 -14 -13 -15 -12 -9 3 6 15 -3 22 -25 18 -13
-2 -9 16 7 29 8 7 15 17 15 23 0 5 -10 2 -22 -9 l-23 -19 19 22 c14 18 23 20
37 12 11 -6 19 -6 19 0 0 5 7 12 16 15 10 4 13 2 8 -7 -4 -6 2 -3 14 7 22 19
31 10 12 -12 -5 -7 1 -2 14 10 14 13 26 30 28 38 5 27 32 38 43 20z m-52 -26
c-3 -8 -10 -14 -15 -14 -6 0 -7 8 -4 17 6 15 4 15 -14 -2 -23 -21 -27 -14 -5
9 18 18 46 11 38 -10z m1361 11 c-4 -8 -11 -12 -16 -9 -6 4 -5 10 3 15 19 12
19 11 13 -6z m-1491 -170 c-3 -9 -8 -14 -10 -11 -3 3 -2 9 2 15 9 16 15 13 8
-4z m380 -42 c-5 -12 -3 -14 7 -8 8 5 11 4 6 -3 -4 -6 -13 -9 -22 -5 -11 4
-12 9 -3 19 15 19 20 18 12 -3z m-57 -17 c3 -9 11 -13 18 -10 6 4 4 -1 -6 -11
-9 -10 -28 -19 -43 -20 -26 -3 -26 -3 -9 23 17 27 17 27 -3 10 -11 -10 -23
-18 -28 -18 -4 0 -1 8 6 18 13 16 12 16 -6 1 -11 -9 -26 -14 -33 -12 -7 3 -10
-1 -6 -10 6 -17 -19 -18 -33 -2 -5 4 -2 5 6 0 11 -6 13 -4 8 9 -4 10 -3 15 3
11 6 -3 10 -1 10 5 0 6 5 8 10 5 6 -3 10 -2 10 3 0 4 20 9 45 11 33 1 47 -2
51 -13z m394 1 c0 -2 -10 -12 -22 -23 l-23 -19 19 23 c18 21 26 27 26 19z
m-465 -48 c11 -16 1 -19 -13 -3 -7 8 -8 14 -3 14 5 0 13 -5 16 -11z"/>
<path d="M1474 2297 c1 -20 4 -23 14 -15 7 6 9 14 5 17 -4 4 -11 10 -14 14 -4
5 -6 -3 -5 -16z"/>
<path d="M1057 2242 c-19 -20 -22 -32 -9 -32 5 0 14 11 20 25 14 30 11 31 -11
7z"/>
<path d="M970 2161 c0 -6 5 -11 12 -11 7 0 5 -7 -5 -17 -14 -17 -14 -18 10
-20 14 0 21 2 15 6 -6 3 -10 15 -9 25 1 10 -4 21 -10 23 -7 3 -13 0 -13 -6z"/>
<path d="M1679 2119 c-9 -17 -8 -20 2 -14 9 6 11 3 6 -8 -3 -10 -3 -17 1 -18
4 0 18 -2 32 -5 l25 -4 -28 25 c-16 14 -25 30 -22 35 3 6 4 10 1 10 -3 0 -10
-10 -17 -21z"/>
<path d="M1747 2084 c6 -15 23 -19 23 -5 0 5 -7 11 -14 14 -10 4 -13 1 -9 -9z"/>
<path d="M1690 2035 c-7 -9 -11 -18 -8 -20 3 -3 11 1 18 10 7 9 11 18 8 20 -3
3 -11 -1 -18 -10z"/>
<path d="M1067 2183 c-4 -3 -7 -11 -7 -17 0 -6 5 -5 12 2 6 6 9 14 7 17 -3 3
-9 2 -12 -2z"/>
<path d="M1521 2070 c-29 -25 -42 -26 -34 -2 4 12 -1 10 -15 -7 -25 -28 -29
-39 -7 -21 11 9 15 9 15 1 0 -7 5 -9 10 -6 14 9 13 -8 -2 -23 -8 -8 -9 -12 -1
-12 6 0 14 6 16 13 3 7 6 7 6 1 1 -6 -8 -19 -19 -29 -11 -10 -20 -23 -20 -28
0 -6 12 0 27 14 20 17 23 18 10 3 -9 -11 -17 -25 -17 -30 1 -5 9 1 20 14 15
18 17 29 10 47 -10 26 -4 55 11 55 4 0 6 -7 3 -15 -3 -8 -3 -19 1 -25 8 -12
65 35 65 54 0 5 -13 -3 -29 -18 l-29 -27 4 30 c4 36 5 36 -25 11z"/>
<path d="M900 2070 c0 -5 5 -10 10 -10 6 0 10 5 10 10 0 6 -4 10 -10 10 -5 0
-10 -4 -10 -10z"/>
<path d="M952 1990 c-7 -11 -8 -20 -3 -20 9 0 24 30 18 36 -1 2 -8 -6 -15 -16z"/>
<path d="M2045 1860 c-3 -5 -1 -10 4 -10 6 0 11 5 11 10 0 6 -2 10 -4 10 -3 0
-8 -4 -11 -10z"/>
<path d="M1685 1600 c-3 -5 -1 -10 4 -10 6 0 11 5 11 10 0 6 -2 10 -4 10 -3 0
-8 -4 -11 -10z"/>
<path d="M2080 1735 c-7 -9 -11 -18 -8 -20 3 -3 11 1 18 10 7 9 11 18 8 20 -3
3 -11 -1 -18 -10z"/>
<path d="M1765 1360 c-3 -5 -2 -18 4 -27 7 -14 9 -12 8 10 -2 30 -3 31 -12 17z"/>
<path d="M1671 1271 c-6 -10 -8 -21 -5 -24 3 -3 1 -14 -4 -24 -11 -21 3 -67
17 -58 13 7 11 85 -2 85 -5 0 -2 9 8 20 10 11 13 20 7 20 -6 0 -16 -8 -21 -19z"/>
<path d="M2106 1201 c-3 -4 4 -7 14 -6 27 2 33 10 10 12 -11 1 -22 -2 -24 -6z"/>
<path d="M2024 1158 l-19 -23 23 19 c21 18 27 26 19 26 -2 0 -12 -10 -23 -22z"/>
<path d="M2044 1148 l-19 -23 23 19 c21 18 27 26 19 26 -2 0 -12 -10 -23 -22z"/>
<path d="M2129 1153 c-13 -16 -12 -17 4 -4 16 13 21 21 13 21 -2 0 -10 -8 -17
-17z"/>
<path d="M2055 1129 c-4 -6 -5 -12 -2 -15 2 -3 7 2 10 11 7 17 1 20 -8 4z"/>
<path d="M1821 1038 c-14 -23 -14 -23 8 -4 22 20 25 26 13 26 -4 0 -13 -10
-21 -22z"/>
<path d="M1770 1036 c-6 -8 -19 -12 -28 -9 -13 4 -14 3 -3 -5 7 -5 10 -15 7
-21 -14 -23 1 -10 22 19 23 30 24 42 2 16z"/>
<path d="M1706 985 c-3 -8 4 -23 15 -34 18 -16 19 -23 9 -41 -8 -15 -8 -20 -1
-16 6 4 25 -2 41 -14 31 -22 60 -21 60 1 0 8 -4 8 -15 -1 -26 -21 -24 -7 2 20
16 16 24 20 23 10 -5 -33 0 -44 11 -33 6 6 17 9 24 7 7 -3 15 2 19 11 4 11 2
14 -7 8 -17 -10 -38 -13 -32 -3 2 4 -4 15 -15 25 -11 10 -17 21 -15 26 3 4 0
11 -6 15 -7 4 -9 3 -5 -4 3 -5 -6 -25 -20 -42 -20 -23 -29 -28 -35 -19 -8 14
9 55 18 45 3 -3 0 -14 -8 -23 -12 -17 -12 -17 5 -2 21 20 28 66 11 73 -7 2
-21 -5 -32 -17 l-18 -22 23 19 c26 22 30 11 5 -16 -15 -17 -18 -17 -34 -2 -10
9 -15 22 -12 30 3 8 3 14 0 14 -3 0 -7 -7 -11 -15z m104 -80 c-13 -14 -26 -23
-28 -20 -7 7 29 45 41 45 6 0 0 -11 -13 -25z"/>
<path d="M1864 978 l-19 -23 23 19 c21 18 27 26 19 26 -2 0 -12 -10 -23 -22z"/>
<path d="M1890 945 c-7 -9 -8 -15 -2 -15 5 0 12 7 16 15 3 8 4 15 2 15 -2 0
-9 -7 -16 -15z"/>
<path d="M1909 893 c-13 -16 -12 -17 4 -4 16 13 21 21 13 21 -2 0 -10 -8 -17
-17z"/>
<path d="M472 1200 c17 -23 19 -33 10 -42 -6 -6 -15 -8 -19 -3 -5 4 -3 10 4
12 13 5 7 33 -7 33 -20 0 -17 -33 7 -70 20 -30 29 -37 39 -29 11 9 11 16 2 33
-10 19 -8 19 17 -4 l29 -25 -23 32 c-18 27 -20 36 -11 54 14 26 7 35 -12 16
-13 -13 -16 -12 -26 4 -7 10 -17 19 -22 19 -6 0 -1 -14 12 -30z m26 -85 c-3
-3 -9 2 -12 12 -6 14 -5 15 5 6 7 -7 10 -15 7 -18z"/>
<path d="M1469 1213 c-13 -16 -12 -17 4 -4 16 13 21 21 13 21 -2 0 -10 -8 -17
-17z"/>
<path d="M1310 1145 c-19 -20 -26 -23 -39 -12 -14 11 -14 10 -2 -6 10 -12 17
-15 25 -7 21 21 28 9 11 -17 -18 -27 -18 -28 1 -12 10 9 26 14 34 12 13 -4 13
-3 0 6 -13 10 -13 12 0 22 13 9 12 10 -2 5 -10 -3 -18 -1 -18 4 0 17 21 22 38
8 15 -12 16 -11 3 5 -18 22 -23 22 -51 -8z"/>
<path d="M1236 1113 c-6 -14 -5 -15 5 -6 7 7 10 15 7 18 -3 3 -9 -2 -12 -12z"/>
<path d="M799 1033 c-13 -16 -12 -17 4 -4 9 7 17 15 17 17 0 8 -8 3 -21 -13z"/>
<path d="M1145 1030 c-4 -6 -2 -10 4 -10 6 0 7 -8 4 -17 -6 -15 -4 -16 9 -6 8
7 18 10 21 6 4 -3 7 -4 7 -2 0 12 -40 37 -45 29z"/>
<path d="M1249 953 c-13 -16 -12 -17 4 -4 9 7 17 15 17 17 0 8 -8 3 -21 -13z"/>
<path d="M1059 913 c-13 -16 -12 -17 4 -4 9 7 17 15 17 17 0 8 -8 3 -21 -13z"/>
<path d="M1352 917 c-7 -8 -6 -16 3 -24 10 -10 15 -10 23 0 7 8 6 16 -3 24
-10 10 -15 10 -23 0z"/>
<path d="M1239 793 c-12 -16 -12 -17 2 -6 9 7 20 9 24 5 5 -4 5 -1 1 6 -9 16
-11 15 -27 -5z"/>
<path d="M280 2055 c14 -8 30 -14 35 -14 6 0 -1 6 -15 14 -14 8 -29 14 -35 14
-5 0 1 -6 15 -14z"/>
<path d="M370 2015 c0 -5 65 -45 74 -45 13 0 5 18 -11 24 -10 3 -28 10 -40 16
-13 5 -23 8 -23 5z"/>
<path d="M2511 1901 c-23 -6 -22 -8 23 -44 36 -31 49 -36 63 -28 10 6 15 11
11 11 -4 0 -3 13 2 29 6 23 5 31 -7 35 -18 7 -61 6 -92 -3z"/>
<path d="M754 1768 c-4 -6 1 -17 11 -24 16 -12 21 -11 37 3 10 9 18 20 18 26
0 5 -9 -1 -20 -14 -10 -13 -19 -19 -20 -13 0 5 6 16 13 24 6 8 1 6 -12 -5 -22
-18 -24 -18 -18 -2 7 19 2 23 -9 5z"/>
<path d="M1510 1770 c0 -5 5 -10 10 -10 6 0 10 -5 10 -11 0 -6 -7 -9 -15 -6
-21 9 -28 -10 -12 -33 14 -20 14 -20 31 -1 14 15 15 23 5 45 -12 26 -29 35
-29 16z m18 -38 c13 11 14 11 10 -2 -6 -18 -30 -20 -34 -2 -1 7 0 8 3 2 3 -7
10 -7 21 2z"/>
<path d="M439 1753 c-13 -16 -12 -17 4 -4 9 7 17 15 17 17 0 8 -8 3 -21 -13z"/>
<path d="M818 1743 c-27 -32 -33 -49 -10 -29 29 25 28 9 0 -22 -16 -18 -18
-23 -7 -20 28 10 41 -6 23 -28 -12 -15 -15 -16 -10 -2 3 12 -1 16 -14 15 -18
-1 -18 -3 -3 -19 13 -15 19 -16 31 -5 13 10 15 9 8 -7 -7 -19 -6 -19 14 -1 27
24 26 8 -2 -24 l-23 -26 30 26 c17 15 40 26 53 24 12 -1 28 5 35 14 10 13 10
14 -3 6 -8 -6 -22 -10 -30 -9 -8 1 -21 2 -29 3 -8 1 -11 8 -7 19 6 16 5 16 -8
0 -19 -25 -29 -22 -15 3 6 12 7 19 2 16 -5 -3 -15 -2 -23 3 -12 7 -11 12 4 29
13 14 15 21 6 21 -7 0 -10 7 -6 15 7 20 2 19 -16 -2z"/>
<path d="M1116 1744 c-5 -14 -4 -15 9 -4 17 14 19 20 6 20 -5 0 -12 -7 -15
-16z"/>
<path d="M1125 1680 c-6 -9 91 -60 99 -53 8 9 -6 33 -19 33 -7 0 -15 5 -17 11
-4 12 -56 20 -63 9z"/>
<path d="M1031 1666 c-9 -10 -8 -15 3 -19 8 -3 20 2 28 11 12 16 11 16 -6 2
-18 -14 -19 -13 -13 3 8 21 3 22 -12 3z"/>
<path d="M2842 1640 c7 -10 14 -18 15 -16 6 6 -9 36 -18 36 -5 0 -4 -9 3 -20z"/>
<path d="M954 1628 l-19 -23 23 19 c21 18 27 26 19 26 -2 0 -12 -10 -23 -22z"/>
<path d="M1115 1614 c-29 -26 -32 -30 -8 -13 17 12 35 19 40 16 5 -3 9 3 9 14
0 10 0 19 -1 19 0 0 -18 -16 -40 -36z"/>
<path d="M1060 1631 c0 -8 -7 -11 -17 -6 -15 5 -16 4 -5 -6 9 -10 15 -10 24
-1 6 6 9 15 5 19 -4 3 -7 1 -7 -6z"/>
<path d="M1459 1623 c-13 -16 -12 -17 4 -4 16 13 21 21 13 21 -2 0 -10 -8 -17
-17z"/>
<path d="M1504 1620 c0 -13 4 -16 10 -10 7 7 7 13 0 20 -6 6 -10 3 -10 -10z"/>
<path d="M959 1603 c-13 -16 -12 -17 4 -4 9 7 17 15 17 17 0 8 -8 3 -21 -13z"/>
<path d="M984 1598 l-19 -23 23 19 c21 18 27 26 19 26 -2 0 -12 -10 -23 -22z"/>
<path d="M1064 1598 l-19 -23 23 19 c21 18 27 26 19 26 -2 0 -12 -10 -23 -22z"/>
<path d="M1464 1598 l-19 -23 23 19 c21 18 27 26 19 26 -2 0 -12 -10 -23 -22z"/>
<path d="M869 1593 c-13 -16 -12 -17 4 -4 9 7 17 15 17 17 0 8 -8 3 -21 -13z"/>
<path d="M898 1591 c-16 -18 -15 -20 2 -18 11 1 16 6 12 16 -4 10 -1 12 8 6 9
-5 11 -4 6 3 -9 15 -9 15 -28 -7z"/>
<path d="M1170 1599 c0 -6 -7 -8 -17 -4 -15 5 -16 4 -5 -6 10 -11 15 -10 29 4
11 11 13 17 5 17 -7 0 -12 -5 -12 -11z"/>
<path d="M780 1579 c0 -5 5 -7 10 -4 6 3 10 8 10 11 0 2 -4 4 -10 4 -5 0 -10
-5 -10 -11z"/>
<path d="M1500 1575 c-7 -8 -17 -12 -23 -8 -6 3 -7 1 -3 -5 8 -14 33 -5 40 14
7 18 2 18 -14 -1z"/>
<path d="M2720 1581 c0 -5 5 -13 10 -16 6 -3 10 -2 10 4 0 5 -4 13 -10 16 -5
3 -10 2 -10 -4z"/>
<path d="M2750 1581 c0 -5 5 -13 10 -16 6 -3 10 -2 10 4 0 5 -4 13 -10 16 -5
3 -10 2 -10 -4z"/>
<path d="M2504 1560 c0 -10 4 -16 9 -13 5 3 14 -1 19 -8 7 -11 8 -9 4 5 -5 13
-2 17 8 13 10 -4 13 -1 9 9 -6 17 -23 19 -23 3 0 -8 -4 -8 -13 -1 -10 8 -13 6
-13 -8z"/>
<path d="M2590 1566 c0 -2 8 -10 18 -17 15 -13 16 -12 3 4 -13 16 -21 21 -21
13z"/>
<path d="M1429 1513 c-13 -20 -24 -46 -24 -57 -2 -16 2 -15 21 9 13 16 21 32
18 37 -3 4 0 17 6 28 18 34 3 22 -21 -17z m11 -17 c0 -2 -8 -10 -17 -17 -16
-13 -17 -12 -4 4 13 16 21 21 21 13z"/>
<path d="M1500 1540 c-8 -5 -12 -12 -9 -15 4 -3 12 1 19 10 14 17 11 19 -10 5z"/>
<path d="M699 1508 c-11 -20 -10 -21 3 -11 8 7 18 10 22 6 4 -4 4 0 0 10 -8
22 -11 22 -25 -5z"/>
<path d="M764 1518 c3 -15 26 -23 26 -8 0 6 -4 9 -9 6 -5 -4 -12 -1 -14 4 -3
6 -4 5 -3 -2z"/>
<path d="M800 1510 c0 -5 7 -7 15 -4 8 4 15 8 15 10 0 2 -7 4 -15 4 -8 0 -15
-4 -15 -10z"/>
<path d="M848 1513 c7 -3 16 -2 19 1 4 3 -2 6 -13 5 -11 0 -14 -3 -6 -6z"/>
<path d="M890 1445 c-7 -9 -11 -17 -9 -20 3 -2 10 5 17 15 14 24 10 26 -8 5z"/>
<path d="M316 1388 c3 -5 10 -6 15 -3 13 9 11 12 -6 12 -8 0 -12 -4 -9 -9z"/>
<path d="M1444 1358 l-19 -23 23 19 c21 18 27 26 19 26 -2 0 -12 -10 -23 -22z"/>
<path d="M786 1357 c3 -10 9 -15 12 -12 3 3 0 11 -7 18 -10 9 -11 8 -5 -6z"/>
<path d="M1054 1338 l-19 -23 23 19 c21 18 27 26 19 26 -2 0 -12 -10 -23 -22z"/>
<path d="M325 1341 c-3 -5 -2 -12 3 -15 5 -3 9 1 9 9 0 17 -3 19 -12 6z"/>
<path d="M1020 1290 c-6 -11 -8 -20 -6 -20 3 0 10 9 16 20 6 11 8 20 6 20 -3
0 -10 -9 -16 -20z"/>
<path d="M714 1215 c15 -22 28 -41 30 -42 2 -2 2 11 1 27 -1 17 -7 36 -14 43
-10 9 -11 8 -5 -8 l7 -20 -23 20 c-21 18 -20 17 4 -20z"/>
<path d="M835 1227 c1 -12 8 -22 16 -23 37 -3 41 -5 35 -20 -6 -15 -4 -15 10
-3 9 7 12 15 6 17 -6 2 -8 11 -5 20 6 15 5 15 -10 3 -9 -7 -17 -9 -17 -5 0 5
-8 14 -18 21 -16 9 -18 8 -17 -10z"/>
<path d="M660 1212 c0 -5 7 -15 15 -22 8 -7 15 -8 15 -2 0 5 -7 15 -15 22 -8
7 -15 8 -15 2z"/>
<path d="M2676 1192 c-3 -6 1 -13 10 -16 23 -9 28 -2 10 13 -8 7 -17 8 -20 3z"/>
<path d="M2720 1170 c0 -5 6 -10 14 -10 8 0 23 -3 33 -6 10 -3 7 2 -7 10 -30
18 -40 20 -40 6z"/>
<path d="M2545 979 c-11 -16 -1 -19 13 -3 7 8 8 14 3 14 -5 0 -13 -5 -16 -11z"/>
<path d="M545 869 c-47 -24 -70 -44 -40 -33 20 8 86 43 94 50 12 11 -19 1 -54
-17z"/>
</g>
</svg>
